/* XPM */
static char *dummy[]={
"32 32 8 1",
"d c #131010",
"f c #141010",
"# c #221c1c",
"c c #231c1c",
"e c #231d1d",
"a c #272020",
"b c #2a2323",
". c #3d3232",
"........#.................#.....",
"........#.................#.....",
"........a.................a.....",
"........#.................#.....",
"........#.................#.....",
"........#.................#.....",
"........a.................a.....",
"........b.................b.....",
"ca##cad#ca##ca##ca##ca##ca##ce##",
"......#...............#.........",
"......c...............#.........",
"......e...............c.........",
"......#...............a.........",
"......#...............#.........",
"......c...............#.........",
"......a...............c.........",
"#ca##ca##ca##ca##ca##ca##ca##fa#",
".............#...............#..",
".............#...............c..",
".............c...............e..",
".............a...............#..",
".............#...............#..",
".............#...............c..",
".............c...............a..",
"##ca##ca##ca##ca##ca##ce##ca##ce",
"........#..............#........",
"........#..............#........",
"........c..............c........",
"........e..............e........",
"........#..............#........",
"........#..............#........",
"........c..............c........"};
