/* XPM */
static char *dummy[]={
"32 32 79 2",
"Qt c None",
".6 c None",
".i c #722e7d",
"#i c #722e7d",
".R c #722e7d",
".5 c #722e7d",
".# c #722e7d",
"#m c #722e7d",
".t c #722e7d",
".s c #722e7d",
".H c #722e7d",
".D c #722e7d",
"## c #722e7d",
".T c #722e7d",
"#j c #722e7d",
".W c #722e7d",
"#l c #722e7d",
".h c #722e7d",
".y c #722e7d",
".1 c #722e7d",
".9 c #722e7d",
".8 c #722e7d",
"#c c #722e7d",
".U c #722e7d",
"#k c #722e7d",
".E c #722e7d",
".j c #722e7d",
".K c #722e7d",
".J c #722e7d",
".a c #722e7d",
".Y c #722e7d",
"#. c #722e7d",
"#h c #722e7d",
".g c #722e7d",
".3 c #722e7d",
".4 c #722e7d",
".O c #722e7d",
".r c #722e7d",
".b c #722e7d",
".z c #722e7d",
".u c #722e7d",
".G c #722e7d",
".X c #722e7d",
".f c #722e7d",
"#d c #722e7d",
".N c #722e7d",
".S c #722e7d",
".x c #722e7d",
"#b c #722e7d",
".0 c #722e7d",
".V c #722e7d",
".c c #722e7d",
".7 c #722e7d",
".C c #722e7d",
".e c #722e7d",
".Q c #722e7d",
"#e c #722e7d",
".k c #722e7d",
".I c #722e7d",
"#g c #722e7d",
".F c #722e7d",
".d c #722e7d",
".Z c #722e7d",
".A c #722e7d",
".L c #722e7d",
"#f c #722e7d",
".2 c #722e7d",
".P c #722e7d",
".n c #722e7d",
".l c #722e7d",
".m c #722e7d",
"#a c #722e7d",
".o c #722e7d",
".M c #722e7d",
".w c #722e7d",
".B c #722e7d",
".q c #722e7d",
".p c #722e7d",
".v c #722e7d",
"QtQtQtQtQtQtQtQtQtQtQtQtQtQtQtQtQtQtQtQtQtQtQtQtQtQtQtQtQtQtQtQt",
"QtQtQtQtQtQtQtQtQtQtQtQtQtQtQtQtQtQtQtQtQtQtQtQtQtQtQtQtQtQtQtQt",
"QtQtQtQtQtQtQtQtQtQtQtQtQtQtQtQtQtQtQtQtQtQtQtQtQtQtQtQtQtQtQtQt",
"QtQtQtQtQtQtQtQtQtQtQtQtQtQtQtQtQtQtQtQtQtQtQtQtQtQtQtQtQtQtQtQt",
"QtQtQtQtQtQtQtQtQtQtQtQtQtQtQtQtQtQtQtQtQtQtQtQtQtQtQtQtQtQtQtQt",
"QtQtQtQtQtQtQtQtQtQtQtQtQtQtQtQtQtQtQtQtQtQtQtQtQtQtQtQtQtQtQtQt",
"QtQtQtQtQtQtQtQtQtQtQt.#.a.b.c.d.e.f.g.hQtQtQtQtQtQtQtQtQtQtQtQt",
"QtQtQtQtQtQtQtQtQt.i.j.k.l.m.n.o.p.p.q.l.r.sQtQtQtQtQtQtQtQtQtQt",
"QtQtQtQtQtQtQtQt.t.u.m.n.q.v.v.v.v.v.v.v.w.x.yQtQtQtQtQtQtQtQtQt",
"QtQtQtQtQtQtQtQt.z.A.q.v.v.v.v.v.v.v.v.v.v.B.C.DQtQtQtQtQtQtQtQt",
"QtQtQtQtQtQtQt.E.F.m.v.v.v.v.v.v.v.v.v.v.v.v.B.GQtQtQtQtQtQtQtQt",
"QtQtQtQtQtQt.H.I.l.v.v.v.v.v.v.v.v.v.v.v.v.v.v.n.JQtQtQtQtQtQtQt",
"QtQtQtQtQtQt.K.L.v.v.v.v.v.v.v.v.v.v.v.v.v.v.v.M.NQtQtQtQtQtQtQt",
"QtQtQtQtQtQt.O.P.v.v.v.v.v.v.v.v.v.v.v.v.v.v.v.B.Q.RQtQtQtQtQtQt",
"QtQtQtQtQtQt.S.l.v.v.v.v.v.v.v.v.v.v.v.v.v.v.v.q.A.TQtQtQtQtQtQt",
"QtQtQtQtQtQt.A.m.v.v.v.v.v.v.v.v.v.v.v.v.v.v.v.v.m.UQtQtQtQtQtQt",
"QtQtQtQtQtQt.V.n.v.v.v.v.v.v.v.p.v.v.v.v.v.v.v.v.m.WQtQtQtQtQtQt",
"QtQtQtQtQtQt.X.P.v.v.v.v.v.v.v.v.v.v.v.v.v.v.v.p.A.sQtQtQtQtQtQt",
"QtQtQtQtQtQt.Y.Z.v.v.v.v.v.v.v.v.v.v.p.v.v.v.v.l.0QtQtQtQtQtQtQt",
"QtQtQtQtQtQt.1.A.p.v.v.v.v.v.v.v.v.v.v.v.v.v.p.2.3QtQtQtQtQtQtQt",
"QtQtQtQtQtQtQt.4.M.v.v.v.v.v.v.v.v.v.v.v.v.v.P.V.5.6QtQtQtQtQtQt",
"QtQtQtQtQtQtQtQt.7.m.v.v.v.v.v.v.v.v.v.v.v.o.P.8QtQtQtQtQtQtQtQt",
"QtQtQtQtQtQtQtQt.9.e.o.v.v.v.v.v.v.v.v.v.m.A#.QtQtQtQtQtQtQtQtQt",
"QtQtQtQtQtQtQtQtQt##.u.m#a.B.q.q.q.B.L.L#b#cQtQtQtQtQtQtQtQtQtQt",
"QtQtQtQtQtQtQtQtQtQt.i.J#d#e.L#f.L#g.x#h.sQtQtQtQtQtQtQtQtQtQtQt",
"QtQtQtQtQtQtQtQtQtQtQt.6.6#i#j#k#l#m.6.6.6QtQtQtQtQtQtQtQtQtQtQt",
"QtQtQtQtQtQtQtQtQtQtQtQtQtQtQtQtQtQtQtQtQtQtQtQtQtQtQtQtQtQtQtQt",
"QtQtQtQtQtQtQtQtQtQtQtQtQtQtQtQtQtQtQtQtQtQtQtQtQtQtQtQtQtQtQtQt",
"QtQtQtQtQtQtQtQtQtQtQtQtQtQtQtQtQtQtQtQtQtQtQtQtQtQtQtQtQtQtQtQt",
"QtQtQtQtQtQtQtQtQtQtQtQtQtQtQtQtQtQtQtQtQtQtQtQtQtQtQtQtQtQtQtQt",
"QtQtQtQtQtQtQtQtQtQtQtQtQtQtQtQtQtQtQtQtQtQtQtQtQtQtQtQtQtQtQtQt",
"QtQtQtQtQtQtQtQtQtQtQtQtQtQtQtQtQtQtQtQtQtQtQtQtQtQtQtQtQtQtQtQt"};
